<svg width="64" height="64" viewBox="0 0 64 64" fill="none" xmlns="http://www.w3.org/2000/svg"><path d="M64 12C64 5.37258 58.6274 0 52 0H12C5.37258 0 0 5.37258 0 12V52C0 58.6274 5.37258 64 12 64H52C58.6274 64 64 58.6274 64 52V12Z" fill="#B2FCE4"></path><path d="M21.293 31.2929L29 23.5859L30.414 24.9999L24.414 30.9999L42 30.9999C42.553 30.9999 43 31.4479 43 31.9999C43 32.5519 42.553 32.9999 42 32.9999H24.414L30.414 38.9999L29 40.4139L21.293 32.7069C20.902 32.3159 20.902 31.6839 21.293 31.2929Z" fill="black"></path></svg>